# xmcd
# 
# Track frame offsets:
#     187
#     22230
#     49602
#     75257
#     93480
#     114405
#     138175
#     162702
# 
# Disc length: 2556
# 
# Revision: 1
# Processed by: cddbd v1.5.2PL0 Copyright (c) Steve Scherf et al.
# Submitted via: BonkEnc v1.0.8
# 
DISCID=5f09fa08
DTITLE=Kenny Drew - Kenny Drew Trio
DYEAR=1956
DGENRE=Jazz
TTITLE0=Caravan
TTITLE1=Come rain or come shine
TTITLE2=Ruby my dear
TTITLE3=Weird-O
TTITLE4=Taking a chance on love
TTITLE5=When you wish upon a star
TTITLE6=Blues for nica
TTITLE7=It's only a paper moon
EXTD=
EXTT0=
EXTT1=
EXTT2=
EXTT3=
EXTT4=
EXTT5=
EXTT6=
EXTT7=
PLAYORDER=
